<?xml version="1.0" standalone="no"?>
<!DOCTYPE svg PUBLIC "-//W3C//DTD SVG 20010904//EN"
 "http://www.w3.org/TR/2001/REC-SVG-20010904/DTD/svg10.dtd">
<svg version="1.0" xmlns="http://www.w3.org/2000/svg"
 width="480.000000pt" height="480.000000pt" viewBox="0 0 480.000000 480.000000"
 preserveAspectRatio="xMidYMid meet">

<g transform="translate(0.000000,480.000000) scale(0.100000,-0.100000)"
fill="#000000" stroke="none">
<path d="M0 2400 l0 -2400 2400 0 2400 0 0 2400 0 2400 -2400 0 -2400 0 0
-2400z m1531 591 c29 -29 29 -30 29 -150 l0 -121 -120 0 -120 0 0 50 c0 33 -4
50 -12 51 -129 9 -213 0 -138 -15 l30 -5 0 -80 c0 -87 3 -91 66 -91 l34 0 0
-94 0 -95 -47 -3 -48 -3 0 -100 0 -100 55 0 55 0 3 63 3 62 119 0 120 0 0
-160 0 -160 -482 0 c-326 0 -478 4 -468 10 8 6 67 37 131 70 64 32 138 72 165
88 l49 28 3 291 c2 225 -1 293 -10 301 -7 5 -85 47 -173 92 -88 46 -164 87
-169 91 -6 5 187 9 443 9 l453 0 29 -29z m2529 -121 l0 -90 -355 0 -355 0 0
-265 0 -265 355 0 355 0 0 -90 0 -90 -445 0 -445 0 0 439 c1 241 4 441 7 445
4 3 204 6 445 6 l438 0 0 -90z m-1678 -47 c55 -32 75 -73 83 -169 12 -140 2
-373 -18 -411 -67 -127 -301 -130 -364 -3 -22 42 -23 56 -23 250 0 113 5 222
10 242 12 42 78 104 119 112 57 10 159 -1 193 -21z m-588 5 c2 -7 9 -46 16
-87 14 -85 22 -80 40 27 l12 72 74 0 c72 0 74 -1 69 -22 -67 -308 -66 -263 -5
-483 17 -60 33 -125 37 -142 l6 -33 -81 0 -81 0 -22 98 c-12 53 -25 103 -29
110 -3 7 -12 -26 -19 -75 -21 -146 -11 -133 -107 -133 -82 0 -84 1 -79 23 10
40 53 271 60 318 5 35 -1 77 -24 175 -18 71 -34 137 -37 147 -5 15 3 17 81 17
60 0 87 -4 89 -12z m1086 -58 l0 -70 -50 0 -50 0 0 -270 0 -270 -90 0 -90 0 0
270 c0 263 -1 270 -20 271 -11 1 -24 3 -30 4 -5 1 -19 3 -30 4 -18 1 -20 8
-20 66 l0 65 190 0 190 0 0 -70z m218 -272 l2 -338 -90 0 -90 0 0 340 0 341
88 -3 87 -3 3 -337z m-1468 -638 c0 -6 -34 -55 -75 -109 -41 -55 -75 -105 -75
-111 0 -7 17 -10 48 -8 43 3 47 5 50 31 3 23 8 27 33 27 29 0 29 -1 29 -54 l0
-55 -136 -3 c-75 -2 -138 0 -140 3 -2 3 33 55 77 115 l80 109 -83 5 c-76 5
-83 7 -86 27 -3 22 -1 22 130 26 73 1 136 4 141 5 4 1 7 -3 7 -8z m578 -22 l3
-27 -113 -3 -113 -3 -3 -27 -3 -28 85 0 c87 0 98 -5 88 -42 -4 -15 -17 -18
-89 -18 l-84 0 3 -27 3 -28 113 -3 c112 -3 112 -3 112 -27 l0 -25 -145 0 -145
0 0 139 c0 125 2 140 18 143 9 2 73 4 142 3 l125 0 3 -27z m381 -20 c25 -28
65 -72 88 -97 l43 -46 0 93 0 92 30 0 30 0 0 -140 0 -140 -29 0 c-24 0 -43 15
-107 88 -43 48 -81 89 -86 90 -4 2 -8 -37 -8 -87 l0 -91 -30 0 -30 0 0 139 c0
142 2 148 39 150 8 1 35 -22 60 -51z m769 20 l3 -27 -113 -3 -113 -3 -3 -27
-3 -28 116 0 116 0 -3 -87 c-2 -63 -7 -88 -15 -87 -7 1 -71 2 -143 3 l-130 1
0 25 c0 24 0 24 113 27 l112 3 3 28 3 27 -115 0 -116 0 0 83 c0 46 2 86 4 88
2 2 67 4 143 4 l138 0 3 -27z"/>
<path d="M2235 2547 c-9 -240 1 -309 41 -276 12 10 14 48 12 233 -3 216 -3
221 -24 224 -21 3 -21 -1 -29 -181z"/>
</g>
</svg>
